<svg xmlns="http://www.w3.org/2000/svg" xmlns:xlink="http://www.w3.org/1999/xlink" viewBox="0 0 500 500" width="48px" height="48px" preserveAspectRatio="xMidYMid meet" style="width: 100%; height: 100%; transform: translate3d(0px, 0px, 0px); content-visibility: visible;" id="Gmail"><defs><clipPath id="__lottie_element_112"><rect width="500" height="500" x="0" y="0"/></clipPath></defs><g clip-path="url(#__lottie_element_112)"><g transform="matrix(1,0.000006514678261737572,-0.000006514678261737572,1,99.7509765625,99.7490234375)" opacity="1" style="display: block;"><g opacity="1" transform="matrix(1,0,0,1,150.25,150.25)"><path fill="rgb(0,0,0)" fill-opacity="1" d=" M100,150 C100,150 -100,150 -100,150 C-127.61399841308594,150 -150,127.61399841308594 -150,100 C-150,100 -150,-100 -150,-100 C-150,-127.61399841308594 -127.61399841308594,-150 -100,-150 C-100,-150 100,-150 100,-150 C127.61399841308594,-150 150,-127.61399841308594 150,-100 C150,-100 150,100 150,100 C150,127.61399841308594 127.61399841308594,150 100,150z"/></g></g><g transform="matrix(1.0000070333480835,0.000007312869001907529,-0.000007312869001907529,1.0000070333480835,149.74984741210938,172.0667266845703)" opacity="1" style="display: block;"><g opacity="1" transform="matrix(1,0,0,1,22.97800064086914,97.24700164794922)"><path fill="rgb(255,255,255)" fill-opacity="1" d=" M-22.72800064086914,42.047000885009766 C-22.725000381469727,49.57600021362305 -16.621000289916992,55.680999755859375 -9.090999603271484,55.680999755859375 C-9.090999603271484,55.680999755859375 22.72800064086914,55.680999755859375 22.72800064086914,55.680999755859375 C22.72800064086914,55.680999755859375 22.715999603271484,-22.715999603271484 22.715999603271484,-22.715999603271484 C22.715999603271484,-22.715999603271484 -22.75,-56.99300003051758 -22.75,-56.99300003051758 C-22.75,-56.99300003051758 -22.72800064086914,42.047000885009766 -22.72800064086914,42.047000885009766z"/></g><g opacity="1" transform="matrix(1,0,0,1,177.52200317382812,77.93199920654297)"><path fill="rgb(255,255,255)" fill-opacity="1" d=" M22.72599983215332,-36.36600112915039 C22.72599983215332,-36.36600112915039 22.72599983215332,-54.54199981689453 22.72599983215332,-54.54199981689453 C22.72599983215332,-65.83699798583984 13.567999839782715,-74.99500274658203 2.2709999084472656,-74.99500274658203 C-2.1559998989105225,-74.99500274658203 -6.460000038146973,-73.55799865722656 -10.00100040435791,-70.90299987792969 C-10.00100040435791,-70.90299987792969 -22.729000091552734,-61.36000061035156 -22.729000091552734,-61.36000061035156 C-22.729000091552734,-61.36000061035156 -22.729000091552734,-2.2760000228881836 -22.729000091552734,-2.2760000228881836 C-22.729000091552734,-2.2760000228881836 -22.729000091552734,74.99500274658203 -22.729000091552734,74.99500274658203 C-22.729000091552734,74.99500274658203 9.092000007629395,74.99500274658203 9.092000007629395,74.99500274658203 C16.62299919128418,74.99500274658203 22.729000091552734,68.89099884033203 22.729000091552734,61.35900115966797 C22.729000091552734,61.35900115966797 22.729000091552734,-36.36800003051758 22.729000091552734,-36.36800003051758 C22.729000091552734,-36.36800003051758 22.72599983215332,-36.36600112915039 22.72599983215332,-36.36600112915039z"/></g><g opacity="1" transform="matrix(1,0,0,1,77.52100372314453,58.404998779296875)"><path fill="rgb(255,255,255)" fill-opacity="1" d=" M-31.81399917602539,-41.83300018310547 C-31.81399917602539,-41.83300018310547 -44.542999267578125,-51.37799835205078 -44.542999267578125,-51.37799835205078 C-53.57899856567383,-58.154998779296875 -66.39900207519531,-56.32500076293945 -73.1760025024414,-47.28799819946289 C-75.83499908447266,-43.74800109863281 -77.26799774169922,-39.439998626708984 -77.26799774169922,-35.018001556396484 C-77.26799774169922,-35.018001556396484 -77.26799774169922,-16.840999603271484 -77.26799774169922,-16.840999603271484 C-77.26799774169922,-16.840999603271484 -31.81399917602539,17.250999450683594 -31.81399917602539,17.250999450683594 C-31.81399917602539,17.250999450683594 22.726999282836914,58.154998779296875 22.726999282836914,58.154998779296875 C22.726999282836914,58.154998779296875 78.20500183105469,16.562000274658203 78.20500183105469,16.562000274658203 C78.20500183105469,16.562000274658203 78.3290023803711,-42.5880012512207 78.3290023803711,-42.5880012512207 C78.3290023803711,-42.5880012512207 22.726999282836914,-0.9290000200271606 22.726999282836914,-0.9290000200271606 C22.726999282836914,-0.9290000200271606 -31.81399917602539,-41.83300018310547 -31.81399917602539,-41.83300018310547z"/></g></g></g></svg>